<svg width="44" height="44" viewBox="0 0 44 44" fill="none" xmlns="http://www.w3.org/2000/svg">
<path d="M29.5459 27.954C29.7572 28.1653 29.876 28.452 29.876 28.7509C29.876 29.0497 29.7572 29.3364 29.5459 29.5477C29.3346 29.7591 29.0479 29.8778 28.749 29.8778C28.4501 29.8778 28.1635 29.7591 27.9521 29.5477L22 23.5937L16.0459 29.5459C15.8346 29.7572 15.5479 29.8759 15.249 29.8759C14.9501 29.8759 14.6635 29.7572 14.4521 29.5459C14.2408 29.3345 14.1221 29.0479 14.1221 28.749C14.1221 28.4501 14.2408 28.1635 14.4521 27.9521L20.4062 21.9999L14.454 16.0459C14.2427 15.8345 14.1239 15.5479 14.1239 15.249C14.1239 14.9501 14.2427 14.6635 14.454 14.4521C14.6654 14.2408 14.952 14.122 15.2509 14.122C15.5498 14.122 15.8364 14.2408 16.0478 14.4521L22 20.4062L27.954 14.4512C28.1654 14.2398 28.452 14.1211 28.7509 14.1211C29.0498 14.1211 29.3364 14.2398 29.5478 14.4512C29.7591 14.6625 29.8778 14.9492 29.8778 15.248C29.8778 15.5469 29.7591 15.8336 29.5478 16.0449L23.5937 21.9999L29.5459 27.954Z" fill="#CBD5E0"/>
</svg>
